<mxfile host="Electron" agent="Mozilla/5.0 (Windows NT 10.0; Win64; x64) AppleWebKit/537.36 (KHTML, like Gecko) draw.io/28.0.6 Chrome/138.0.7204.100 Electron/37.2.3 Safari/537.36" version="28.0.6">
  <diagram name="Page-1" id="SnENGXAfTUTf5RGmTrN6">
    <mxGraphModel dx="1042" dy="1795" grid="1" gridSize="10" guides="1" tooltips="1" connect="1" arrows="1" fold="1" page="1" pageScale="1" pageWidth="827" pageHeight="1169" math="0" shadow="0">
      <root>
        <mxCell id="0" />
        <mxCell id="1" parent="0" />
        <mxCell id="TU3HxTkVjJC3VnLRO3mT-1" value="Species" style="swimlane;fontStyle=0;childLayout=stackLayout;horizontal=1;startSize=30;horizontalStack=0;resizeParent=1;resizeParentMax=0;resizeLast=0;collapsible=1;marginBottom=0;whiteSpace=wrap;html=1;" parent="1" vertex="1">
          <mxGeometry x="160" y="110" width="140" height="90" as="geometry" />
        </mxCell>
        <mxCell id="TU3HxTkVjJC3VnLRO3mT-2" value="&lt;div&gt;&lt;u&gt;id&lt;/u&gt; : Long&lt;/div&gt;&lt;div&gt;common_name : String&lt;/div&gt;&lt;div&gt;scientific_name : String&lt;/div&gt;&lt;div&gt;category : Category&lt;/div&gt;" style="text;strokeColor=none;fillColor=none;align=left;verticalAlign=middle;spacingLeft=4;spacingRight=4;overflow=hidden;points=[[0,0.5],[1,0.5]];portConstraint=eastwest;rotatable=0;whiteSpace=wrap;html=1;" parent="TU3HxTkVjJC3VnLRO3mT-1" vertex="1">
          <mxGeometry y="30" width="140" height="60" as="geometry" />
        </mxCell>
        <mxCell id="TU3HxTkVjJC3VnLRO3mT-3" value="Observation" style="swimlane;fontStyle=0;childLayout=stackLayout;horizontal=1;startSize=30;horizontalStack=0;resizeParent=1;resizeParentMax=0;resizeLast=0;collapsible=1;marginBottom=0;whiteSpace=wrap;html=1;" parent="1" vertex="1">
          <mxGeometry x="160" y="360" width="170" height="150" as="geometry">
            <mxRectangle x="160" y="360" width="110" height="30" as="alternateBounds" />
          </mxGeometry>
        </mxCell>
        <mxCell id="TU3HxTkVjJC3VnLRO3mT-4" value="&lt;div&gt;&lt;u&gt;id&lt;/u&gt; : Long&lt;/div&gt;&lt;div&gt;observer_name : String&lt;/div&gt;&lt;div&gt;location : String&lt;/div&gt;&lt;div&gt;latitude : Double&lt;/div&gt;&lt;div&gt;longitude : Double&lt;/div&gt;&lt;div&gt;observation_date : LocalDate&lt;/div&gt;&lt;div&gt;comment : String&lt;/div&gt;" style="text;strokeColor=none;fillColor=none;align=left;verticalAlign=middle;spacingLeft=4;spacingRight=4;overflow=hidden;points=[[0,0.5],[1,0.5]];portConstraint=eastwest;rotatable=0;whiteSpace=wrap;html=1;" parent="TU3HxTkVjJC3VnLRO3mT-3" vertex="1">
          <mxGeometry y="30" width="170" height="120" as="geometry" />
        </mxCell>
        <mxCell id="TU3HxTkVjJC3VnLRO3mT-5" value="travel_log" style="swimlane;fontStyle=0;childLayout=stackLayout;horizontal=1;startSize=30;horizontalStack=0;resizeParent=1;resizeParentMax=0;resizeLast=0;collapsible=1;marginBottom=0;whiteSpace=wrap;html=1;" parent="1" vertex="1">
          <mxGeometry x="580" y="385" width="150" height="100" as="geometry" />
        </mxCell>
        <mxCell id="TU3HxTkVjJC3VnLRO3mT-6" value="&lt;u&gt;id&lt;/u&gt; : Long&lt;div&gt;distanceKm : Double&lt;/div&gt;&lt;div&gt;mode : TravelMode&lt;/div&gt;&lt;div&gt;estimatedCoKg : Double&lt;/div&gt;" style="text;strokeColor=none;fillColor=none;align=left;verticalAlign=middle;spacingLeft=4;spacingRight=4;overflow=hidden;points=[[0,0.5],[1,0.5]];portConstraint=eastwest;rotatable=0;whiteSpace=wrap;html=1;" parent="TU3HxTkVjJC3VnLRO3mT-5" vertex="1">
          <mxGeometry y="30" width="150" height="70" as="geometry" />
        </mxCell>
        <mxCell id="TU3HxTkVjJC3VnLRO3mT-7" value="génère" style="rounded=1;whiteSpace=wrap;html=1;" parent="1" vertex="1">
          <mxGeometry x="400" y="417.5" width="80" height="35" as="geometry" />
        </mxCell>
        <mxCell id="TU3HxTkVjJC3VnLRO3mT-8" value="" style="endArrow=none;html=1;rounded=0;exitX=0.986;exitY=0.408;exitDx=0;exitDy=0;exitPerimeter=0;" parent="1" source="TU3HxTkVjJC3VnLRO3mT-4" edge="1">
          <mxGeometry width="50" height="50" relative="1" as="geometry">
            <mxPoint x="310" y="430" as="sourcePoint" />
            <mxPoint x="400" y="439" as="targetPoint" />
          </mxGeometry>
        </mxCell>
        <mxCell id="TU3HxTkVjJC3VnLRO3mT-9" value="" style="endArrow=none;html=1;rounded=0;entryX=0.009;entryY=0.354;entryDx=0;entryDy=0;entryPerimeter=0;" parent="1" target="TU3HxTkVjJC3VnLRO3mT-6" edge="1">
          <mxGeometry width="50" height="50" relative="1" as="geometry">
            <mxPoint x="480" y="440" as="sourcePoint" />
            <mxPoint x="440" y="320" as="targetPoint" />
          </mxGeometry>
        </mxCell>
        <mxCell id="TU3HxTkVjJC3VnLRO3mT-10" value="1" style="text;html=1;align=center;verticalAlign=middle;whiteSpace=wrap;rounded=0;" parent="1" vertex="1">
          <mxGeometry x="330" y="410" width="40" height="20" as="geometry" />
        </mxCell>
        <mxCell id="TU3HxTkVjJC3VnLRO3mT-11" value="N" style="text;html=1;align=center;verticalAlign=middle;whiteSpace=wrap;rounded=0;" parent="1" vertex="1">
          <mxGeometry x="510" y="410" width="40" height="20" as="geometry" />
        </mxCell>
        <mxCell id="TU3HxTkVjJC3VnLRO3mT-12" value="concerne" style="rounded=1;whiteSpace=wrap;html=1;" parent="1" vertex="1">
          <mxGeometry x="190" y="260" width="80" height="35" as="geometry" />
        </mxCell>
        <mxCell id="TU3HxTkVjJC3VnLRO3mT-13" value="" style="endArrow=none;html=1;rounded=0;exitX=0.5;exitY=0;exitDx=0;exitDy=0;entryX=0.5;entryY=0.97;entryDx=0;entryDy=0;entryPerimeter=0;" parent="1" source="TU3HxTkVjJC3VnLRO3mT-12" target="TU3HxTkVjJC3VnLRO3mT-2" edge="1">
          <mxGeometry width="50" height="50" relative="1" as="geometry">
            <mxPoint x="390" y="370" as="sourcePoint" />
            <mxPoint x="440" y="320" as="targetPoint" />
          </mxGeometry>
        </mxCell>
        <mxCell id="TU3HxTkVjJC3VnLRO3mT-14" value="" style="endArrow=none;html=1;rounded=0;exitX=0.5;exitY=0;exitDx=0;exitDy=0;entryX=0.5;entryY=0.97;entryDx=0;entryDy=0;entryPerimeter=0;" parent="1" edge="1">
          <mxGeometry width="50" height="50" relative="1" as="geometry">
            <mxPoint x="229.5" y="357" as="sourcePoint" />
            <mxPoint x="229.5" y="295" as="targetPoint" />
          </mxGeometry>
        </mxCell>
        <mxCell id="TU3HxTkVjJC3VnLRO3mT-15" value="1" style="text;html=1;align=center;verticalAlign=middle;whiteSpace=wrap;rounded=0;" parent="1" vertex="1">
          <mxGeometry x="250" y="220" width="40" height="20" as="geometry" />
        </mxCell>
        <mxCell id="TU3HxTkVjJC3VnLRO3mT-16" value="N" style="text;html=1;align=center;verticalAlign=middle;whiteSpace=wrap;rounded=0;" parent="1" vertex="1">
          <mxGeometry x="250" y="320" width="40" height="20" as="geometry" />
        </mxCell>
        <mxCell id="TU3HxTkVjJC3VnLRO3mT-18" value="&amp;lt;&amp;lt;enum&amp;gt;&amp;gt; Category" style="swimlane;fontStyle=0;childLayout=stackLayout;horizontal=1;startSize=30;horizontalStack=0;resizeParent=1;resizeParentMax=0;resizeLast=0;collapsible=1;marginBottom=0;whiteSpace=wrap;html=1;" parent="1" vertex="1">
          <mxGeometry x="430" y="110" width="140" height="110" as="geometry" />
        </mxCell>
        <mxCell id="TU3HxTkVjJC3VnLRO3mT-19" value="BIRD&lt;div&gt;MAMMAL&lt;/div&gt;&lt;div&gt;INSECT&lt;/div&gt;&lt;div&gt;PLANT&lt;/div&gt;&lt;div&gt;OTHER&lt;/div&gt;&lt;div&gt;&lt;u&gt;&lt;br&gt;&lt;/u&gt;&lt;/div&gt;" style="text;strokeColor=none;fillColor=none;align=left;verticalAlign=middle;spacingLeft=4;spacingRight=4;overflow=hidden;points=[[0,0.5],[1,0.5]];portConstraint=eastwest;rotatable=0;whiteSpace=wrap;html=1;" parent="TU3HxTkVjJC3VnLRO3mT-18" vertex="1">
          <mxGeometry y="30" width="140" height="80" as="geometry" />
        </mxCell>
        <mxCell id="TU3HxTkVjJC3VnLRO3mT-20" value="&amp;lt;&amp;lt;enum&amp;gt;&amp;gt; TravelMode" style="swimlane;fontStyle=0;childLayout=stackLayout;horizontal=1;startSize=30;horizontalStack=0;resizeParent=1;resizeParentMax=0;resizeLast=0;collapsible=1;marginBottom=0;whiteSpace=wrap;html=1;" parent="1" vertex="1">
          <mxGeometry x="600" y="110" width="140" height="120" as="geometry" />
        </mxCell>
        <mxCell id="TU3HxTkVjJC3VnLRO3mT-21" value="&lt;div&gt;WALKING&lt;/div&gt;&lt;div&gt;BIKE&lt;/div&gt;&lt;div&gt;CAR&lt;/div&gt;&lt;div&gt;BUS&lt;/div&gt;&lt;div&gt;TRAIN&lt;/div&gt;&lt;div&gt;PLANE&lt;/div&gt;" style="text;strokeColor=none;fillColor=none;align=left;verticalAlign=middle;spacingLeft=4;spacingRight=4;overflow=hidden;points=[[0,0.5],[1,0.5]];portConstraint=eastwest;rotatable=0;whiteSpace=wrap;html=1;" parent="TU3HxTkVjJC3VnLRO3mT-20" vertex="1">
          <mxGeometry y="30" width="140" height="90" as="geometry" />
        </mxCell>
        <mxCell id="Qmp6MCHt8Z-_02crx0AP-1" value="&lt;p style=&quot;margin:0px;margin-top:4px;text-align:center;&quot;&gt;&lt;i&gt;&amp;lt;&amp;lt;enumeration&amp;gt;&amp;gt;&lt;/i&gt;&lt;br/&gt;&lt;b&gt;Category&lt;/b&gt;&lt;/p&gt;&lt;hr size=&quot;1&quot;/&gt;&lt;p style=&quot;margin:0 0 0 4px;line-height:1.6;&quot;&gt;+ valueOf(String): Category&lt;br/&gt;+ values(): Category[]&lt;/p&gt;" style="verticalAlign=top;align=left;overflow=fill;fontSize=14;fontFamily=Helvetica;html=1;rounded=0;shadow=0;comic=0;labelBackgroundColor=none;strokeWidth=1;" vertex="1" parent="1">
          <mxGeometry x="2217" y="110" width="204" height="109" as="geometry" />
        </mxCell>
        <mxCell id="Qmp6MCHt8Z-_02crx0AP-2" value="&lt;p style=&quot;margin:0px;margin-top:4px;text-align:center;&quot;&gt;&lt;b&gt;EnvironementApplication&lt;/b&gt;&lt;/p&gt;&lt;hr size=&quot;1&quot;/&gt;&lt;p style=&quot;margin:0 0 0 4px;line-height:1.6;&quot;&gt;+ main(String[]): void&lt;/p&gt;" style="verticalAlign=top;align=left;overflow=fill;fontSize=14;fontFamily=Helvetica;html=1;rounded=0;shadow=0;comic=0;labelBackgroundColor=none;strokeWidth=1;" vertex="1" parent="1">
          <mxGeometry x="2853" y="2001" width="244" height="68" as="geometry" />
        </mxCell>
        <mxCell id="Qmp6MCHt8Z-_02crx0AP-3" value="&lt;p style=&quot;margin:0px;margin-top:4px;text-align:center;&quot;&gt;&lt;b&gt;NotFoundException&lt;/b&gt;&lt;/p&gt;&lt;hr size=&quot;1&quot;/&gt;" style="verticalAlign=top;align=left;overflow=fill;fontSize=14;fontFamily=Helvetica;html=1;rounded=0;shadow=0;comic=0;labelBackgroundColor=none;strokeWidth=1;" vertex="1" parent="1">
          <mxGeometry x="3384" y="1890" width="202" height="30" as="geometry" />
        </mxCell>
        <mxCell id="Qmp6MCHt8Z-_02crx0AP-4" value="&lt;p style=&quot;margin:0px;margin-top:4px;text-align:center;&quot;&gt;&lt;b&gt;Observation&lt;/b&gt;&lt;/p&gt;&lt;hr size=&quot;1&quot;&gt;+ entityToDto(): ObservationDtoResponse&lt;hr size=&quot;1&quot;&gt;&lt;p style=&quot;margin:0 0 0 4px;line-height:1.6;&quot;&gt; comment: String&lt;br&gt; location: String&lt;br&gt; latitude: Double&lt;br&gt; specie: Specie&lt;br&gt; observerName: String&lt;br&gt; observationDate: LocalDate&lt;br&gt; travellogs: List&amp;lt;Travellog&amp;gt;&lt;br&gt; id: long&lt;br&gt; longitude: Double&lt;/p&gt;" style="verticalAlign=top;align=left;overflow=fill;fontSize=14;fontFamily=Helvetica;html=1;rounded=0;shadow=0;comic=0;labelBackgroundColor=none;strokeWidth=1;" vertex="1" parent="1">
          <mxGeometry x="1976" y="989" width="296" height="284" as="geometry" />
        </mxCell>
        <mxCell id="Qmp6MCHt8Z-_02crx0AP-5" value="&lt;p style=&quot;margin:0px;margin-top:4px;text-align:center;&quot;&gt;&lt;b&gt;ObservationController&lt;/b&gt;&lt;/p&gt;&lt;hr size=&quot;1&quot;/&gt;&lt;p style=&quot;margin:0 0 0 4px;line-height:1.6;&quot;&gt;+ getObservationBySpecie(long): ResponseEntity&amp;lt;List&amp;lt;ObservationDtoResponse&amp;gt;&amp;gt;&lt;br/&gt;+ getById(long): ResponseEntity&amp;lt;ObservationDtoResponse&amp;gt;&lt;br/&gt;+ getObservationByLocation(String): ResponseEntity&amp;lt;List&amp;lt;ObservationDtoResponse&amp;gt;&amp;gt;&lt;br/&gt;+ create(ObservationDtoReceive): ResponseEntity&amp;lt;ObservationDtoResponse&amp;gt;&lt;br/&gt;+ getAll(int, int): ResponseEntity&amp;lt;List&amp;lt;ObservationDtoResponse&amp;gt;&amp;gt;&lt;/p&gt;" style="verticalAlign=top;align=left;overflow=fill;fontSize=14;fontFamily=Helvetica;html=1;rounded=0;shadow=0;comic=0;labelBackgroundColor=none;strokeWidth=1;" vertex="1" parent="1">
          <mxGeometry x="1957" y="2123" width="581" height="159" as="geometry" />
        </mxCell>
        <mxCell id="Qmp6MCHt8Z-_02crx0AP-6" value="&lt;p style=&quot;margin:0px;margin-top:4px;text-align:center;&quot;&gt;&lt;b&gt;ObservationDtoReceive&lt;/b&gt;&lt;/p&gt;&lt;hr size=&quot;1&quot;&gt;&lt;p style=&quot;margin:0 0 0 4px;line-height:1.6;&quot;&gt;+ toString(): String&lt;br&gt;+ dtoToEntity(SpecieRepository): Observation&lt;/p&gt;&lt;hr size=&quot;1&quot;&gt;&lt;p style=&quot;margin:0 0 0 4px;line-height:1.6;&quot;&gt; comment: String&lt;br&gt; location: String&lt;br&gt; latitude: Double&lt;br&gt; observerName: String&lt;br&gt; specieId: long&lt;br&gt; travellogs: List&amp;lt;TravellogDtoReceive&amp;gt;&lt;br&gt; observationDateStr: String&lt;br&gt; longitude: Double&lt;/p&gt;" style="verticalAlign=top;align=left;overflow=fill;fontSize=14;fontFamily=Helvetica;html=1;rounded=0;shadow=0;comic=0;labelBackgroundColor=none;strokeWidth=1;" vertex="1" parent="1">
          <mxGeometry x="1557" y="1206" width="320" height="297" as="geometry" />
        </mxCell>
        <mxCell id="Qmp6MCHt8Z-_02crx0AP-7" value="&lt;p style=&quot;margin:0px;margin-top:4px;text-align:center;&quot;&gt;&lt;b&gt;ObservationDtoResponse&lt;/b&gt;&lt;/p&gt;&lt;hr size=&quot;1&quot;&gt;+ toString(): String&lt;hr size=&quot;1&quot;&gt;&lt;p style=&quot;margin:0 0 0 4px;line-height:1.6;&quot;&gt; comment: String&lt;br&gt; location: String&lt;br&gt; latitude: Double&lt;br&gt; specie: SpecieDtoResponse&lt;br&gt; observerName: String&lt;br&gt; observationDate: LocalDate&lt;br&gt; travellogs: List&amp;lt;TravellogDtoResponse&amp;gt;&lt;br&gt; id: long&lt;br&gt; longitude: Double&lt;/p&gt;" style="verticalAlign=top;align=left;overflow=fill;fontSize=14;fontFamily=Helvetica;html=1;rounded=0;shadow=0;comic=0;labelBackgroundColor=none;strokeWidth=1;" vertex="1" parent="1">
          <mxGeometry x="2355" y="1039" width="306" height="377" as="geometry" />
        </mxCell>
        <mxCell id="Qmp6MCHt8Z-_02crx0AP-8" value="&lt;p style=&quot;margin:0px;margin-top:4px;text-align:center;&quot;&gt;&lt;i&gt;&amp;lt;&amp;lt;interface&amp;gt;&amp;gt;&lt;/i&gt;&lt;br&gt;&lt;b&gt;ObservationRepository&lt;/b&gt;&lt;/p&gt;&lt;hr size=&quot;1&quot;&gt;&lt;p style=&quot;margin:0 0 0 4px;line-height:1.6;&quot;&gt;+&lt;/p&gt;&lt;p style=&quot;margin:0 0 0 4px;line-height:1.6;&quot;&gt;+&lt;/p&gt;&lt;p style=&quot;margin:0 0 0 4px;line-height:1.6;&quot;&gt;+&lt;/p&gt;" style="verticalAlign=top;align=left;overflow=fill;fontSize=14;fontFamily=Helvetica;html=1;rounded=0;shadow=0;comic=0;labelBackgroundColor=none;strokeWidth=1;" vertex="1" parent="1">
          <mxGeometry x="1704" y="1777" width="536" height="139" as="geometry" />
        </mxCell>
        <mxCell id="Qmp6MCHt8Z-_02crx0AP-9" value="&lt;p style=&quot;margin:0px;margin-top:4px;text-align:center;&quot;&gt;&lt;i&gt;&amp;lt;&amp;lt;interface&amp;gt;&amp;gt;&lt;/i&gt;&lt;br/&gt;&lt;b&gt;ObservationRepositoryPaginate&lt;/b&gt;&lt;/p&gt;&lt;hr size=&quot;1&quot;/&gt;" style="verticalAlign=top;align=left;overflow=fill;fontSize=14;fontFamily=Helvetica;html=1;rounded=0;shadow=0;comic=0;labelBackgroundColor=none;strokeWidth=1;" vertex="1" parent="1">
          <mxGeometry x="2289" y="1685" width="293" height="35" as="geometry" />
        </mxCell>
        <mxCell id="Qmp6MCHt8Z-_02crx0AP-10" value="&lt;p style=&quot;margin:0px;margin-top:4px;text-align:center;&quot;&gt;&lt;b&gt;ObservationService&lt;/b&gt;&lt;/p&gt;&lt;hr size=&quot;1&quot;/&gt;&lt;p style=&quot;margin:0 0 0 4px;line-height:1.6;&quot;&gt;+ get(long): ObservationDtoResponse&lt;br/&gt;+ getBySpecie(long): List&amp;lt;ObservationDtoResponse&amp;gt;&lt;br/&gt;+ create(ObservationDtoReceive): ObservationDtoResponse&lt;br/&gt;- convertList(List&amp;lt;Observation&amp;gt;): List&amp;lt;ObservationDtoResponse&amp;gt;&lt;br/&gt;+ get(int, int): List&amp;lt;ObservationDtoResponse&amp;gt;&lt;br/&gt;+ getByLocation(String): List&amp;lt;ObservationDtoResponse&amp;gt;&lt;/p&gt;" style="verticalAlign=top;align=left;overflow=fill;fontSize=14;fontFamily=Helvetica;html=1;rounded=0;shadow=0;comic=0;labelBackgroundColor=none;strokeWidth=1;" vertex="1" parent="1">
          <mxGeometry x="2306" y="1880" width="450" height="183" as="geometry" />
        </mxCell>
        <mxCell id="Qmp6MCHt8Z-_02crx0AP-11" value="&lt;p style=&quot;margin:0px;margin-top:4px;text-align:center;&quot;&gt;&lt;b&gt;Specie&lt;/b&gt;&lt;/p&gt;&lt;hr size=&quot;1&quot;&gt;&lt;p style=&quot;margin:0 0 0 4px;line-height:1.6;&quot;&gt;+ toString(): String&lt;br&gt;+ entityToDto(): SpecieDtoResponse&lt;/p&gt;&lt;hr size=&quot;1&quot;&gt;&lt;p style=&quot;margin:0 0 0 4px;line-height:1.6;&quot;&gt; category: Category&lt;br&gt; commonName: String&lt;br&gt; scientificName: String&lt;br&gt; id: long&lt;/p&gt;" style="verticalAlign=top;align=left;overflow=fill;fontSize=14;fontFamily=Helvetica;html=1;rounded=0;shadow=0;comic=0;labelBackgroundColor=none;strokeWidth=1;" vertex="1" parent="1">
          <mxGeometry x="2283" y="648" width="261" height="195" as="geometry" />
        </mxCell>
        <mxCell id="Qmp6MCHt8Z-_02crx0AP-12" value="&lt;p style=&quot;margin:0px;margin-top:4px;text-align:center;&quot;&gt;&lt;b&gt;SpecieController&lt;/b&gt;&lt;/p&gt;&lt;hr size=&quot;1&quot;&gt;&lt;p style=&quot;margin:0 0 0 4px;line-height:1.6;&quot;&gt;+&lt;br&gt;+&lt;br&gt;+&lt;/p&gt;" style="verticalAlign=top;align=left;overflow=fill;fontSize=14;fontFamily=Helvetica;html=1;rounded=0;shadow=0;comic=0;labelBackgroundColor=none;strokeWidth=1;" vertex="1" parent="1">
          <mxGeometry x="2831" y="1830" width="493" height="120" as="geometry" />
        </mxCell>
        <mxCell id="Qmp6MCHt8Z-_02crx0AP-13" value="&lt;p style=&quot;margin:0px;margin-top:4px;text-align:center;&quot;&gt;&lt;b&gt;SpecieDtoReceive&lt;/b&gt;&lt;/p&gt;&lt;hr size=&quot;1&quot;&gt;&lt;p style=&quot;margin:0 0 0 4px;line-height:1.6;&quot;&gt;+&amp;nbsp;&lt;br&gt;+&amp;nbsp;&lt;/p&gt;&lt;hr size=&quot;1&quot;&gt;&lt;p style=&quot;margin:0 0 0 4px;line-height:1.6;&quot;&gt;-&lt;/p&gt;&lt;p style=&quot;margin:0 0 0 4px;line-height:1.6;&quot;&gt;-&lt;/p&gt;&lt;p style=&quot;margin:0 0 0 4px;line-height:1.6;&quot;&gt;-&lt;/p&gt;" style="verticalAlign=top;align=left;overflow=fill;fontSize=14;fontFamily=Helvetica;html=1;rounded=0;shadow=0;comic=0;labelBackgroundColor=none;strokeWidth=1;" vertex="1" parent="1">
          <mxGeometry x="1943" y="1451" width="258" height="172" as="geometry" />
        </mxCell>
        <mxCell id="Qmp6MCHt8Z-_02crx0AP-14" value="&lt;p style=&quot;margin:0px;margin-top:4px;text-align:center;&quot;&gt;&lt;b&gt;SpecieDtoResponse&lt;/b&gt;&lt;/p&gt;&lt;hr size=&quot;1&quot;&gt;&lt;p style=&quot;margin:0 0 0 4px;line-height:1.6;&quot;&gt;+ toString(): String&lt;/p&gt;&lt;hr size=&quot;1&quot;&gt;&lt;p style=&quot;margin:0 0 0 4px;line-height:1.6;&quot;&gt; commonName: String&lt;br&gt; category: String&lt;br&gt; scientificName: String&lt;br&gt; id: long&lt;/p&gt;" style="verticalAlign=top;align=left;overflow=fill;fontSize=14;fontFamily=Helvetica;html=1;rounded=0;shadow=0;comic=0;labelBackgroundColor=none;strokeWidth=1;" vertex="1" parent="1">
          <mxGeometry x="2497" y="307" width="272" height="186" as="geometry" />
        </mxCell>
        <mxCell id="Qmp6MCHt8Z-_02crx0AP-15" value="&lt;p style=&quot;margin:0px;margin-top:4px;text-align:center;&quot;&gt;&lt;i&gt;&amp;lt;&amp;lt;interface&amp;gt;&amp;gt;&lt;/i&gt;&lt;br/&gt;&lt;b&gt;SpecieRepository&lt;/b&gt;&lt;/p&gt;&lt;hr size=&quot;1&quot;/&gt;" style="verticalAlign=top;align=left;overflow=fill;fontSize=14;fontFamily=Helvetica;html=1;rounded=0;shadow=0;comic=0;labelBackgroundColor=none;strokeWidth=1;" vertex="1" parent="1">
          <mxGeometry x="2642" y="1742" width="185" height="35" as="geometry" />
        </mxCell>
        <mxCell id="Qmp6MCHt8Z-_02crx0AP-16" value="&lt;p style=&quot;margin:0px;margin-top:4px;text-align:center;&quot;&gt;&lt;i&gt;&amp;lt;&amp;lt;interface&amp;gt;&amp;gt;&lt;/i&gt;&lt;br/&gt;&lt;b&gt;SpecieRepositoryPaginate&lt;/b&gt;&lt;/p&gt;&lt;hr size=&quot;1&quot;/&gt;" style="verticalAlign=top;align=left;overflow=fill;fontSize=14;fontFamily=Helvetica;html=1;rounded=0;shadow=0;comic=0;labelBackgroundColor=none;strokeWidth=1;" vertex="1" parent="1">
          <mxGeometry x="2772" y="1637" width="251" height="35" as="geometry" />
        </mxCell>
        <mxCell id="Qmp6MCHt8Z-_02crx0AP-17" value="&lt;p style=&quot;margin:0px;margin-top:4px;text-align:center;&quot;&gt;&lt;b&gt;SpecieService&lt;/b&gt;&lt;/p&gt;&lt;hr size=&quot;1&quot;/&gt;&lt;p style=&quot;margin:0 0 0 4px;line-height:1.6;&quot;&gt;+ get(int, int): List&amp;lt;SpecieDtoResponse&amp;gt;&lt;br/&gt;+ create(SpecieDtoReceive): SpecieDtoResponse&lt;br/&gt;+ get(long): SpecieDtoResponse&lt;/p&gt;" style="verticalAlign=top;align=left;overflow=fill;fontSize=14;fontFamily=Helvetica;html=1;rounded=0;shadow=0;comic=0;labelBackgroundColor=none;strokeWidth=1;" vertex="1" parent="1">
          <mxGeometry x="3177" y="1637" width="336" height="120" as="geometry" />
        </mxCell>
        <mxCell id="Qmp6MCHt8Z-_02crx0AP-18" value="&lt;p style=&quot;margin:0px;margin-top:4px;text-align:center;&quot;&gt;&lt;i&gt;&amp;lt;&amp;lt;enumeration&amp;gt;&amp;gt;&lt;/i&gt;&lt;br/&gt;&lt;b&gt;TravelMode&lt;/b&gt;&lt;/p&gt;&lt;hr size=&quot;1&quot;/&gt;&lt;p style=&quot;margin:0 0 0 4px;line-height:1.6;&quot;&gt;+ values(): TravelMode[]&lt;br/&gt;+ valueOf(String): TravelMode&lt;/p&gt;" style="verticalAlign=top;align=left;overflow=fill;fontSize=14;fontFamily=Helvetica;html=1;rounded=0;shadow=0;comic=0;labelBackgroundColor=none;strokeWidth=1;" vertex="1" parent="1">
          <mxGeometry x="1879" y="115" width="219" height="109" as="geometry" />
        </mxCell>
        <mxCell id="Qmp6MCHt8Z-_02crx0AP-19" value="&lt;p style=&quot;margin:0px;margin-top:4px;text-align:center;&quot;&gt;&lt;b&gt;Travellog&lt;/b&gt;&lt;/p&gt;&lt;hr size=&quot;1&quot;&gt;&lt;p style=&quot;margin:0 0 0 4px;line-height:1.6;&quot;&gt;+&amp;nbsp;&lt;br&gt;+&amp;nbsp;&lt;br&gt;+&amp;nbsp;&lt;/p&gt;&lt;hr size=&quot;1&quot;&gt;&lt;p style=&quot;margin:0 0 0 4px;line-height:1.6;&quot;&gt;-&lt;/p&gt;&lt;p style=&quot;margin:0 0 0 4px;line-height:1.6;&quot;&gt;-&lt;/p&gt;&lt;p style=&quot;margin:0 0 0 4px;line-height:1.6;&quot;&gt;-&lt;/p&gt;&lt;p style=&quot;margin:0 0 0 4px;line-height:1.6;&quot;&gt;-&lt;/p&gt;&lt;p style=&quot;margin:0 0 0 4px;line-height:1.6;&quot;&gt;-&lt;/p&gt;" style="verticalAlign=top;align=left;overflow=fill;fontSize=14;fontFamily=Helvetica;html=1;rounded=0;shadow=0;comic=0;labelBackgroundColor=none;strokeWidth=1;" vertex="1" parent="1">
          <mxGeometry x="2159" y="258" width="277" height="245" as="geometry" />
        </mxCell>
        <mxCell id="Qmp6MCHt8Z-_02crx0AP-20" value="&lt;p style=&quot;margin:0px;margin-top:4px;text-align:center;&quot;&gt;&lt;b&gt;TravellogController&lt;/b&gt;&lt;/p&gt;&lt;hr size=&quot;1&quot;/&gt;&lt;p style=&quot;margin:0 0 0 4px;line-height:1.6;&quot;&gt;+ getStatFromObseration(long): ResponseEntity&amp;lt;TravellogDtoStat&amp;gt;&lt;br/&gt;+ getTravelStatForUserOnLAstMonth(String): ResponseEntity&amp;lt;Map&amp;lt;String, TravellogDtoStat&amp;gt;&amp;gt;&lt;/p&gt;&lt;hr size=&quot;1&quot;/&gt;&lt;p style=&quot;margin:0 0 0 4px;line-height:1.6;&quot;&gt; allTravellogs: ResponseEntity&amp;lt;List&amp;lt;TravellogDtoResponse&amp;gt;&amp;gt;&lt;/p&gt;" style="verticalAlign=top;align=left;overflow=fill;fontSize=14;fontFamily=Helvetica;html=1;rounded=0;shadow=0;comic=0;labelBackgroundColor=none;strokeWidth=1;" vertex="1" parent="1">
          <mxGeometry x="1013" y="1887" width="630" height="122" as="geometry" />
        </mxCell>
        <mxCell id="Qmp6MCHt8Z-_02crx0AP-21" value="&lt;p style=&quot;margin:0px;margin-top:4px;text-align:center;&quot;&gt;&lt;b&gt;TravellogDtoReceive&lt;/b&gt;&lt;/p&gt;&lt;hr size=&quot;1&quot;&gt;&lt;p style=&quot;margin:0 0 0 4px;line-height:1.6;&quot;&gt;+ toString(): String&lt;br&gt;+ dtoToEntity(): Travellog&lt;/p&gt;&lt;hr size=&quot;1&quot;&gt;&lt;p style=&quot;margin:0 0 0 4px;line-height:1.6;&quot;&gt; mode: String&lt;br&gt; distanceKm: double&lt;/p&gt;" style="verticalAlign=top;align=left;overflow=fill;fontSize=14;fontFamily=Helvetica;html=1;rounded=0;shadow=0;comic=0;labelBackgroundColor=none;strokeWidth=1;" vertex="1" parent="1">
          <mxGeometry x="1852" y="647" width="274" height="166" as="geometry" />
        </mxCell>
        <mxCell id="Qmp6MCHt8Z-_02crx0AP-22" value="&lt;p style=&quot;margin:0px;margin-top:4px;text-align:center;&quot;&gt;&lt;b&gt;TravellogDtoResponse&lt;/b&gt;&lt;/p&gt;&lt;hr size=&quot;1&quot;&gt;&lt;p style=&quot;margin:0 0 0 4px;line-height:1.6;&quot;&gt;+ toString(): String&lt;/p&gt;&lt;hr size=&quot;1&quot;&gt;&lt;p style=&quot;margin:0 0 0 4px;line-height:1.6;&quot;&gt; mode: String&lt;br&gt; distanceKm: double&lt;br&gt; id: long&lt;br&gt; estimatedCo2Kg: double&lt;/p&gt;" style="verticalAlign=top;align=left;overflow=fill;fontSize=14;fontFamily=Helvetica;html=1;rounded=0;shadow=0;comic=0;labelBackgroundColor=none;strokeWidth=1;" vertex="1" parent="1">
          <mxGeometry x="2605" y="673" width="288" height="190" as="geometry" />
        </mxCell>
        <mxCell id="Qmp6MCHt8Z-_02crx0AP-23" value="&lt;p style=&quot;margin:0px;margin-top:4px;text-align:center;&quot;&gt;&lt;b&gt;TravellogDtoStat&lt;/b&gt;&lt;/p&gt;&lt;hr size=&quot;1&quot;&gt;&lt;p style=&quot;margin:0 0 0 4px;line-height:1.6;&quot;&gt;+&lt;br&gt;+&lt;br&gt;+&lt;br&gt;+&lt;/p&gt;&lt;hr size=&quot;1&quot;&gt;&lt;p style=&quot;margin:0 0 0 4px;line-height:1.6;&quot;&gt;-&lt;/p&gt;&lt;p style=&quot;margin:0 0 0 4px;line-height:1.6;&quot;&gt;-&lt;/p&gt;&lt;p style=&quot;margin:0 0 0 4px;line-height:1.6;&quot;&gt;-&lt;/p&gt;" style="verticalAlign=top;align=left;overflow=fill;fontSize=14;fontFamily=Helvetica;html=1;rounded=0;shadow=0;comic=0;labelBackgroundColor=none;strokeWidth=1;" vertex="1" parent="1">
          <mxGeometry x="1097" y="1240" width="267" height="233" as="geometry" />
        </mxCell>
        <mxCell id="Qmp6MCHt8Z-_02crx0AP-24" value="&lt;p style=&quot;margin:0px;margin-top:4px;text-align:center;&quot;&gt;&lt;i&gt;&amp;lt;&amp;lt;interface&amp;gt;&amp;gt;&lt;/i&gt;&lt;br/&gt;&lt;b&gt;TravellogRepository&lt;/b&gt;&lt;/p&gt;&lt;hr size=&quot;1&quot;/&gt;&lt;p style=&quot;margin:0 0 0 4px;line-height:1.6;&quot;&gt;+ findTravellogByObservation_Id(long): List&amp;lt;Travellog&amp;gt;&lt;/p&gt;" style="verticalAlign=top;align=left;overflow=fill;fontSize=14;fontFamily=Helvetica;html=1;rounded=0;shadow=0;comic=0;labelBackgroundColor=none;strokeWidth=1;" vertex="1" parent="1">
          <mxGeometry x="1389" y="1645" width="379" height="79" as="geometry" />
        </mxCell>
        <mxCell id="Qmp6MCHt8Z-_02crx0AP-25" value="&lt;p style=&quot;margin:0px;margin-top:4px;text-align:center;&quot;&gt;&lt;b&gt;TravellogsService&lt;/b&gt;&lt;/p&gt;&lt;hr size=&quot;1&quot;/&gt;&lt;p style=&quot;margin:0 0 0 4px;line-height:1.6;&quot;&gt;+ getStat(long): TravellogDtoStat&lt;br/&gt;+ get(int): List&amp;lt;TravellogDtoResponse&amp;gt;&lt;br/&gt;+ getStatForUserLastMonth(String): Map&amp;lt;String, TravellogDtoStat&amp;gt;&lt;/p&gt;" style="verticalAlign=top;align=left;overflow=fill;fontSize=14;fontFamily=Helvetica;html=1;rounded=0;shadow=0;comic=0;labelBackgroundColor=none;strokeWidth=1;" vertex="1" parent="1">
          <mxGeometry x="850" y="1682" width="457" height="120" as="geometry" />
        </mxCell>
        <mxCell id="Qmp6MCHt8Z-_02crx0AP-26" value="" style="html=1;rounded=1;edgeStyle=orthogonalEdgeStyle;dashed=0;startArrow=diamondThinstartSize=12;endArrow=openThin;endSize=12;strokeColor=#595959;exitX=1.000;exitY=0.500;exitDx=0;exitDy=0;entryX=0.211;entryY=1.000;entryDx=0;entryDy=0;" edge="1" parent="1" source="Qmp6MCHt8Z-_02crx0AP-4" target="Qmp6MCHt8Z-_02crx0AP-11">
          <mxGeometry width="50" height="50" relative="1" as="geometry">
            <Array as="points">
              <mxPoint x="2338" y="1190" />
            </Array>
          </mxGeometry>
        </mxCell>
        <mxCell id="Qmp6MCHt8Z-_02crx0AP-27" value="1" style="edgeLabel;resizable=0;html=1;align=left;verticalAlign=top;strokeColor=default;" vertex="1" connectable="0" parent="Qmp6MCHt8Z-_02crx0AP-26">
          <mxGeometry x="1326" y="893" as="geometry" />
        </mxCell>
        <mxCell id="Qmp6MCHt8Z-_02crx0AP-28" value="1" style="edgeLabel;resizable=0;html=1;align=left;verticalAlign=top;strokeColor=default;" vertex="1" connectable="0" parent="Qmp6MCHt8Z-_02crx0AP-26">
          <mxGeometry x="1326" y="1016" as="geometry" />
        </mxCell>
        <mxCell id="Qmp6MCHt8Z-_02crx0AP-29" value="specie" style="edgeLabel;resizable=0;html=1;align=left;verticalAlign=top;strokeColor=default;" vertex="1" connectable="0" parent="Qmp6MCHt8Z-_02crx0AP-26">
          <mxGeometry x="1341" y="829" as="geometry" />
        </mxCell>
        <mxCell id="Qmp6MCHt8Z-_02crx0AP-30" value="" style="html=1;rounded=1;edgeStyle=orthogonalEdgeStyle;dashed=0;startArrow=diamondThinstartSize=12;endArrow=openThin;endSize=12;strokeColor=#595959;exitX=0.643;exitY=0.000;exitDx=0;exitDy=0;entryX=0.027;entryY=1.000;entryDx=0;entryDy=0;" edge="1" parent="1" source="Qmp6MCHt8Z-_02crx0AP-4" target="Qmp6MCHt8Z-_02crx0AP-19">
          <mxGeometry width="50" height="50" relative="1" as="geometry">
            <Array as="points" />
          </mxGeometry>
        </mxCell>
        <mxCell id="Qmp6MCHt8Z-_02crx0AP-31" value="1" style="edgeLabel;resizable=0;html=1;align=left;verticalAlign=top;strokeColor=default;" vertex="1" connectable="0" parent="Qmp6MCHt8Z-_02crx0AP-30">
          <mxGeometry x="1158" y="841" as="geometry" />
        </mxCell>
        <mxCell id="Qmp6MCHt8Z-_02crx0AP-32" value="*" style="edgeLabel;resizable=0;html=1;align=left;verticalAlign=top;strokeColor=default;" vertex="1" connectable="0" parent="Qmp6MCHt8Z-_02crx0AP-30">
          <mxGeometry x="1160" y="469" as="geometry" />
        </mxCell>
        <mxCell id="Qmp6MCHt8Z-_02crx0AP-33" value="travellogs" style="edgeLabel;resizable=0;html=1;align=left;verticalAlign=top;strokeColor=default;" vertex="1" connectable="0" parent="Qmp6MCHt8Z-_02crx0AP-30">
          <mxGeometry x="1169" y="469" as="geometry" />
        </mxCell>
        <mxCell id="Qmp6MCHt8Z-_02crx0AP-34" value="" style="html=1;rounded=1;edgeStyle=orthogonalEdgeStyle;dashed=0;startArrow=diamondThinstartSize=12;endArrow=openThin;endSize=12;strokeColor=#595959;exitX=0.987;exitY=0.000;exitDx=0;exitDy=0;entryX=0.499;entryY=1.000;entryDx=0;entryDy=0;" edge="1" parent="1" source="Qmp6MCHt8Z-_02crx0AP-5" target="Qmp6MCHt8Z-_02crx0AP-10">
          <mxGeometry width="50" height="50" relative="1" as="geometry">
            <Array as="points" />
          </mxGeometry>
        </mxCell>
        <mxCell id="Qmp6MCHt8Z-_02crx0AP-35" value="1" style="edgeLabel;resizable=0;html=1;align=left;verticalAlign=top;strokeColor=default;" vertex="1" connectable="0" parent="Qmp6MCHt8Z-_02crx0AP-34">
          <mxGeometry x="1518" y="1945" as="geometry" />
        </mxCell>
        <mxCell id="Qmp6MCHt8Z-_02crx0AP-36" value="1" style="edgeLabel;resizable=0;html=1;align=left;verticalAlign=top;strokeColor=default;" vertex="1" connectable="0" parent="Qmp6MCHt8Z-_02crx0AP-34">
          <mxGeometry x="1523" y="1971" as="geometry" />
        </mxCell>
        <mxCell id="Qmp6MCHt8Z-_02crx0AP-37" value="observationService" style="edgeLabel;resizable=0;html=1;align=left;verticalAlign=top;strokeColor=default;" vertex="1" connectable="0" parent="Qmp6MCHt8Z-_02crx0AP-34">
          <mxGeometry x="1534" y="1945" as="geometry" />
        </mxCell>
        <mxCell id="Qmp6MCHt8Z-_02crx0AP-38" value="" style="html=1;rounded=1;edgeStyle=orthogonalEdgeStyle;dashed=0;startArrow=diamondThinstartSize=12;endArrow=openThin;endSize=12;strokeColor=#595959;exitX=0.977;exitY=0.000;exitDx=0;exitDy=0;entryX=0.063;entryY=1.000;entryDx=0;entryDy=0;" edge="1" parent="1" source="Qmp6MCHt8Z-_02crx0AP-6" target="Qmp6MCHt8Z-_02crx0AP-21">
          <mxGeometry width="50" height="50" relative="1" as="geometry">
            <Array as="points" />
          </mxGeometry>
        </mxCell>
        <mxCell id="Qmp6MCHt8Z-_02crx0AP-39" value="1" style="edgeLabel;resizable=0;html=1;align=left;verticalAlign=top;strokeColor=default;" vertex="1" connectable="0" parent="Qmp6MCHt8Z-_02crx0AP-38">
          <mxGeometry x="862" y="1053" as="geometry" />
        </mxCell>
        <mxCell id="Qmp6MCHt8Z-_02crx0AP-40" value="*" style="edgeLabel;resizable=0;html=1;align=left;verticalAlign=top;strokeColor=default;" vertex="1" connectable="0" parent="Qmp6MCHt8Z-_02crx0AP-38">
          <mxGeometry x="864" y="767" as="geometry" />
        </mxCell>
        <mxCell id="Qmp6MCHt8Z-_02crx0AP-41" value="travellogs" style="edgeLabel;resizable=0;html=1;align=left;verticalAlign=top;strokeColor=default;" vertex="1" connectable="0" parent="Qmp6MCHt8Z-_02crx0AP-38">
          <mxGeometry x="873" y="767" as="geometry" />
        </mxCell>
        <mxCell id="Qmp6MCHt8Z-_02crx0AP-42" value="" style="html=1;rounded=1;edgeStyle=orthogonalEdgeStyle;dashed=0;startArrow=diamondThinstartSize=12;endArrow=openThin;endSize=12;strokeColor=#595959;exitX=0.758;exitY=0.000;exitDx=0;exitDy=0;entryX=0.334;entryY=1.000;entryDx=0;entryDy=0;" edge="1" parent="1" source="Qmp6MCHt8Z-_02crx0AP-7" target="Qmp6MCHt8Z-_02crx0AP-14">
          <mxGeometry width="50" height="50" relative="1" as="geometry">
            <Array as="points" />
          </mxGeometry>
        </mxCell>
        <mxCell id="Qmp6MCHt8Z-_02crx0AP-43" value="1" style="edgeLabel;resizable=0;html=1;align=left;verticalAlign=top;strokeColor=default;" vertex="1" connectable="0" parent="Qmp6MCHt8Z-_02crx0AP-42">
          <mxGeometry x="1579" y="456" as="geometry" />
        </mxCell>
        <mxCell id="Qmp6MCHt8Z-_02crx0AP-44" value="1" style="edgeLabel;resizable=0;html=1;align=left;verticalAlign=top;strokeColor=default;" vertex="1" connectable="0" parent="Qmp6MCHt8Z-_02crx0AP-42">
          <mxGeometry x="1579" y="811" as="geometry" />
        </mxCell>
        <mxCell id="Qmp6MCHt8Z-_02crx0AP-45" value="specie" style="edgeLabel;resizable=0;html=1;align=left;verticalAlign=top;strokeColor=default;" vertex="1" connectable="0" parent="Qmp6MCHt8Z-_02crx0AP-42">
          <mxGeometry x="1590" y="456" as="geometry" />
        </mxCell>
        <mxCell id="Qmp6MCHt8Z-_02crx0AP-46" value="" style="html=1;rounded=1;edgeStyle=orthogonalEdgeStyle;dashed=0;startArrow=diamondThinstartSize=12;endArrow=openThin;endSize=12;strokeColor=#595959;exitX=0.975;exitY=0.000;exitDx=0;exitDy=0;entryX=0.171;entryY=1.000;entryDx=0;entryDy=0;" edge="1" parent="1" source="Qmp6MCHt8Z-_02crx0AP-7" target="Qmp6MCHt8Z-_02crx0AP-22">
          <mxGeometry width="50" height="50" relative="1" as="geometry">
            <Array as="points" />
          </mxGeometry>
        </mxCell>
        <mxCell id="Qmp6MCHt8Z-_02crx0AP-47" value="1" style="edgeLabel;resizable=0;html=1;align=left;verticalAlign=top;strokeColor=default;" vertex="1" connectable="0" parent="Qmp6MCHt8Z-_02crx0AP-46">
          <mxGeometry x="1642" y="836" as="geometry" />
        </mxCell>
        <mxCell id="Qmp6MCHt8Z-_02crx0AP-48" value="*" style="edgeLabel;resizable=0;html=1;align=left;verticalAlign=top;strokeColor=default;" vertex="1" connectable="0" parent="Qmp6MCHt8Z-_02crx0AP-46">
          <mxGeometry x="1638" y="822" as="geometry" />
        </mxCell>
        <mxCell id="Qmp6MCHt8Z-_02crx0AP-49" value="travellogs" style="edgeLabel;resizable=0;html=1;align=left;verticalAlign=top;strokeColor=default;" vertex="1" connectable="0" parent="Qmp6MCHt8Z-_02crx0AP-46">
          <mxGeometry x="1657" y="812" as="geometry" />
        </mxCell>
        <mxCell id="Qmp6MCHt8Z-_02crx0AP-50" value="" style="html=1;rounded=1;edgeStyle=orthogonalEdgeStyle;dashed=0;startArrow=diamondThinstartSize=12;endArrow=openThin;endSize=12;strokeColor=#595959;exitX=0.000;exitY=0.500;exitDx=0;exitDy=0;entryX=1.000;entryY=0.500;entryDx=0;entryDy=0;" edge="1" parent="1" source="Qmp6MCHt8Z-_02crx0AP-10" target="Qmp6MCHt8Z-_02crx0AP-8">
          <mxGeometry width="50" height="50" relative="1" as="geometry">
            <Array as="points">
              <mxPoint x="2265" y="1971" />
              <mxPoint x="2265" y="1832" />
            </Array>
          </mxGeometry>
        </mxCell>
        <mxCell id="Qmp6MCHt8Z-_02crx0AP-51" value="1" style="edgeLabel;resizable=0;html=1;align=left;verticalAlign=top;strokeColor=default;" vertex="1" connectable="0" parent="Qmp6MCHt8Z-_02crx0AP-50">
          <mxGeometry x="1252" y="1705" as="geometry" />
        </mxCell>
        <mxCell id="Qmp6MCHt8Z-_02crx0AP-52" value="1" style="edgeLabel;resizable=0;html=1;align=left;verticalAlign=top;strokeColor=default;" vertex="1" connectable="0" parent="Qmp6MCHt8Z-_02crx0AP-50">
          <mxGeometry x="1272" y="1824" as="geometry" />
        </mxCell>
        <mxCell id="Qmp6MCHt8Z-_02crx0AP-53" value="observationRepository" style="edgeLabel;resizable=0;html=1;align=left;verticalAlign=top;strokeColor=default;" vertex="1" connectable="0" parent="Qmp6MCHt8Z-_02crx0AP-50">
          <mxGeometry x="1193" y="1636" as="geometry" />
        </mxCell>
        <mxCell id="Qmp6MCHt8Z-_02crx0AP-54" value="" style="html=1;rounded=1;edgeStyle=orthogonalEdgeStyle;dashed=0;startArrow=diamondThinstartSize=12;endArrow=openThin;endSize=12;strokeColor=#595959;exitX=0.287;exitY=0.000;exitDx=0;exitDy=0;entryX=0.500;entryY=1.001;entryDx=0;entryDy=0;" edge="1" parent="1" source="Qmp6MCHt8Z-_02crx0AP-10" target="Qmp6MCHt8Z-_02crx0AP-9">
          <mxGeometry width="50" height="50" relative="1" as="geometry">
            <Array as="points" />
          </mxGeometry>
        </mxCell>
        <mxCell id="Qmp6MCHt8Z-_02crx0AP-55" value="1" style="edgeLabel;resizable=0;html=1;align=left;verticalAlign=top;strokeColor=default;" vertex="1" connectable="0" parent="Qmp6MCHt8Z-_02crx0AP-54">
          <mxGeometry x="1427" y="1599" as="geometry" />
        </mxCell>
        <mxCell id="Qmp6MCHt8Z-_02crx0AP-56" value="1" style="edgeLabel;resizable=0;html=1;align=left;verticalAlign=top;strokeColor=default;" vertex="1" connectable="0" parent="Qmp6MCHt8Z-_02crx0AP-54">
          <mxGeometry x="1427" y="1728" as="geometry" />
        </mxCell>
        <mxCell id="Qmp6MCHt8Z-_02crx0AP-57" value="observationRepositoryPaginate" style="edgeLabel;resizable=0;html=1;align=left;verticalAlign=top;strokeColor=default;" vertex="1" connectable="0" parent="Qmp6MCHt8Z-_02crx0AP-54">
          <mxGeometry x="1438" y="1599" as="geometry" />
        </mxCell>
        <mxCell id="Qmp6MCHt8Z-_02crx0AP-58" value="" style="html=1;rounded=1;edgeStyle=orthogonalEdgeStyle;dashed=0;startArrow=diamondThinstartSize=12;endArrow=openThin;endSize=12;strokeColor=#595959;exitX=0.500;exitY=0.000;exitDx=0;exitDy=0;entryX=0.500;entryY=1.001;entryDx=0;entryDy=0;" edge="1" parent="1" source="Qmp6MCHt8Z-_02crx0AP-10" target="Qmp6MCHt8Z-_02crx0AP-15">
          <mxGeometry width="50" height="50" relative="1" as="geometry">
            <Array as="points">
              <mxPoint x="2531" y="1801" />
              <mxPoint x="2735" y="1801" />
            </Array>
          </mxGeometry>
        </mxCell>
        <mxCell id="Qmp6MCHt8Z-_02crx0AP-59" value="1" style="edgeLabel;resizable=0;html=1;align=left;verticalAlign=top;strokeColor=default;" vertex="1" connectable="0" parent="Qmp6MCHt8Z-_02crx0AP-58">
          <mxGeometry x="1727" y="1654" as="geometry" />
        </mxCell>
        <mxCell id="Qmp6MCHt8Z-_02crx0AP-60" value="1" style="edgeLabel;resizable=0;html=1;align=left;verticalAlign=top;strokeColor=default;" vertex="1" connectable="0" parent="Qmp6MCHt8Z-_02crx0AP-58">
          <mxGeometry x="1569" y="1658" as="geometry" />
        </mxCell>
        <mxCell id="Qmp6MCHt8Z-_02crx0AP-61" value="specieRepository" style="edgeLabel;resizable=0;html=1;align=left;verticalAlign=top;strokeColor=default;" vertex="1" connectable="0" parent="Qmp6MCHt8Z-_02crx0AP-58">
          <mxGeometry x="1738" y="1654" as="geometry" />
        </mxCell>
        <mxCell id="Qmp6MCHt8Z-_02crx0AP-62" value="" style="html=1;rounded=1;edgeStyle=orthogonalEdgeStyle;dashed=0;startArrow=diamondThinstartSize=12;endArrow=openThin;endSize=12;strokeColor=#595959;exitX=0.652;exitY=0.000;exitDx=0;exitDy=0;entryX=1.000;entryY=0.500;entryDx=0;entryDy=0;" edge="1" parent="1" source="Qmp6MCHt8Z-_02crx0AP-11" target="Qmp6MCHt8Z-_02crx0AP-1">
          <mxGeometry width="50" height="50" relative="1" as="geometry">
            <Array as="points">
              <mxPoint x="2453" y="153" />
            </Array>
          </mxGeometry>
        </mxCell>
        <mxCell id="Qmp6MCHt8Z-_02crx0AP-63" value="1" style="edgeLabel;resizable=0;html=1;align=left;verticalAlign=top;strokeColor=default;" vertex="1" connectable="0" parent="Qmp6MCHt8Z-_02crx0AP-62">
          <mxGeometry x="1430" y="26" as="geometry" />
        </mxCell>
        <mxCell id="Qmp6MCHt8Z-_02crx0AP-64" value="1" style="edgeLabel;resizable=0;html=1;align=left;verticalAlign=top;strokeColor=default;" vertex="1" connectable="0" parent="Qmp6MCHt8Z-_02crx0AP-62">
          <mxGeometry x="1450" y="26" as="geometry" />
        </mxCell>
        <mxCell id="Qmp6MCHt8Z-_02crx0AP-65" value="category" style="edgeLabel;resizable=0;html=1;align=left;verticalAlign=top;strokeColor=default;" vertex="1" connectable="0" parent="Qmp6MCHt8Z-_02crx0AP-62">
          <mxGeometry x="1415" y="-5" as="geometry" />
        </mxCell>
        <mxCell id="Qmp6MCHt8Z-_02crx0AP-66" value="" style="html=1;rounded=1;edgeStyle=orthogonalEdgeStyle;dashed=0;startArrow=diamondThinstartSize=12;endArrow=openThin;endSize=12;strokeColor=#595959;exitX=1.000;exitY=0.605;exitDx=0;exitDy=0;entryX=0.545;entryY=1.000;entryDx=0;entryDy=0;" edge="1" parent="1" source="Qmp6MCHt8Z-_02crx0AP-12" target="Qmp6MCHt8Z-_02crx0AP-17">
          <mxGeometry width="50" height="50" relative="1" as="geometry">
            <Array as="points">
              <mxPoint x="3360" y="1897" />
            </Array>
          </mxGeometry>
        </mxCell>
        <mxCell id="Qmp6MCHt8Z-_02crx0AP-67" value="1" style="edgeLabel;resizable=0;html=1;align=left;verticalAlign=top;strokeColor=default;" vertex="1" connectable="0" parent="Qmp6MCHt8Z-_02crx0AP-66">
          <mxGeometry x="2352" y="1648" as="geometry" />
        </mxCell>
        <mxCell id="Qmp6MCHt8Z-_02crx0AP-68" value="1" style="edgeLabel;resizable=0;html=1;align=left;verticalAlign=top;strokeColor=default;" vertex="1" connectable="0" parent="Qmp6MCHt8Z-_02crx0AP-66">
          <mxGeometry x="2352" y="1747" as="geometry" />
        </mxCell>
        <mxCell id="Qmp6MCHt8Z-_02crx0AP-69" value="specieService" style="edgeLabel;resizable=0;html=1;align=left;verticalAlign=top;strokeColor=default;" vertex="1" connectable="0" parent="Qmp6MCHt8Z-_02crx0AP-66">
          <mxGeometry x="2363" y="1648" as="geometry" />
        </mxCell>
        <mxCell id="Qmp6MCHt8Z-_02crx0AP-70" value="" style="html=1;rounded=1;edgeStyle=orthogonalEdgeStyle;dashed=0;startArrow=diamondThinstartSize=12;endArrow=openThin;endSize=12;strokeColor=#595959;exitX=0.500;exitY=1.000;exitDx=0;exitDy=0;entryX=0.500;entryY=1.001;entryDx=0;entryDy=0;" edge="1" parent="1" source="Qmp6MCHt8Z-_02crx0AP-17" target="Qmp6MCHt8Z-_02crx0AP-15">
          <mxGeometry width="50" height="50" relative="1" as="geometry">
            <Array as="points">
              <mxPoint x="3345" y="1801" />
              <mxPoint x="2735" y="1801" />
            </Array>
          </mxGeometry>
        </mxCell>
        <mxCell id="Qmp6MCHt8Z-_02crx0AP-71" value="1" style="edgeLabel;resizable=0;html=1;align=left;verticalAlign=top;strokeColor=default;" vertex="1" connectable="0" parent="Qmp6MCHt8Z-_02crx0AP-70">
          <mxGeometry x="1727" y="1659" as="geometry" />
        </mxCell>
        <mxCell id="Qmp6MCHt8Z-_02crx0AP-72" value="1" style="edgeLabel;resizable=0;html=1;align=left;verticalAlign=top;strokeColor=default;" vertex="1" connectable="0" parent="Qmp6MCHt8Z-_02crx0AP-70">
          <mxGeometry x="2348" y="1640" as="geometry" />
        </mxCell>
        <mxCell id="Qmp6MCHt8Z-_02crx0AP-73" value="specieRepository" style="edgeLabel;resizable=0;html=1;align=left;verticalAlign=top;strokeColor=default;" vertex="1" connectable="0" parent="Qmp6MCHt8Z-_02crx0AP-70">
          <mxGeometry x="1738" y="1659" as="geometry" />
        </mxCell>
        <mxCell id="Qmp6MCHt8Z-_02crx0AP-74" value="" style="html=1;rounded=1;edgeStyle=orthogonalEdgeStyle;dashed=0;startArrow=diamondThinstartSize=12;endArrow=openThin;endSize=12;strokeColor=#595959;exitX=0.000;exitY=0.121;exitDx=0;exitDy=0;entryX=1.000;entryY=0.500;entryDx=0;entryDy=0;" edge="1" parent="1" source="Qmp6MCHt8Z-_02crx0AP-17" target="Qmp6MCHt8Z-_02crx0AP-16">
          <mxGeometry width="50" height="50" relative="1" as="geometry">
            <Array as="points" />
          </mxGeometry>
        </mxCell>
        <mxCell id="Qmp6MCHt8Z-_02crx0AP-75" value="1" style="edgeLabel;resizable=0;html=1;align=left;verticalAlign=top;strokeColor=default;" vertex="1" connectable="0" parent="Qmp6MCHt8Z-_02crx0AP-74">
          <mxGeometry x="2035" y="1523" as="geometry" />
        </mxCell>
        <mxCell id="Qmp6MCHt8Z-_02crx0AP-76" value="1" style="edgeLabel;resizable=0;html=1;align=left;verticalAlign=top;strokeColor=default;" vertex="1" connectable="0" parent="Qmp6MCHt8Z-_02crx0AP-74">
          <mxGeometry x="2119" y="1528" as="geometry" />
        </mxCell>
        <mxCell id="Qmp6MCHt8Z-_02crx0AP-77" value="specieRepositoryPaginate" style="edgeLabel;resizable=0;html=1;align=left;verticalAlign=top;strokeColor=default;" vertex="1" connectable="0" parent="Qmp6MCHt8Z-_02crx0AP-74">
          <mxGeometry x="1957" y="1443" as="geometry" />
        </mxCell>
        <mxCell id="Qmp6MCHt8Z-_02crx0AP-78" value="" style="html=1;rounded=1;edgeStyle=orthogonalEdgeStyle;dashed=0;startArrow=diamondThinstartSize=12;endArrow=openThin;endSize=12;strokeColor=#595959;exitX=0.382;exitY=1.000;exitDx=0;exitDy=0;entryX=0.975;entryY=0.000;entryDx=0;entryDy=0;" edge="1" parent="1" source="Qmp6MCHt8Z-_02crx0AP-19" target="Qmp6MCHt8Z-_02crx0AP-4">
          <mxGeometry width="50" height="50" relative="1" as="geometry">
            <Array as="points" />
          </mxGeometry>
        </mxCell>
        <mxCell id="Qmp6MCHt8Z-_02crx0AP-79" value="1" style="edgeLabel;resizable=0;html=1;align=left;verticalAlign=top;strokeColor=default;" vertex="1" connectable="0" parent="Qmp6MCHt8Z-_02crx0AP-78">
          <mxGeometry x="1256" y="814" as="geometry" />
        </mxCell>
        <mxCell id="Qmp6MCHt8Z-_02crx0AP-80" value="1" style="edgeLabel;resizable=0;html=1;align=left;verticalAlign=top;strokeColor=default;" vertex="1" connectable="0" parent="Qmp6MCHt8Z-_02crx0AP-78">
          <mxGeometry x="1256" y="484" as="geometry" />
        </mxCell>
        <mxCell id="Qmp6MCHt8Z-_02crx0AP-81" value="observation" style="edgeLabel;resizable=0;html=1;align=left;verticalAlign=top;strokeColor=default;" vertex="1" connectable="0" parent="Qmp6MCHt8Z-_02crx0AP-78">
          <mxGeometry x="1250" y="438" as="geometry" />
        </mxCell>
        <mxCell id="Qmp6MCHt8Z-_02crx0AP-82" value="" style="html=1;rounded=1;edgeStyle=orthogonalEdgeStyle;dashed=0;startArrow=diamondThinstartSize=12;endArrow=openThin;endSize=12;strokeColor=#595959;exitX=0.000;exitY=0.500;exitDx=0;exitDy=0;entryX=0.500;entryY=1.000;entryDx=0;entryDy=0;" edge="1" parent="1" source="Qmp6MCHt8Z-_02crx0AP-19" target="Qmp6MCHt8Z-_02crx0AP-18">
          <mxGeometry width="50" height="50" relative="1" as="geometry">
            <Array as="points">
              <mxPoint x="1989" y="422" />
            </Array>
          </mxGeometry>
        </mxCell>
        <mxCell id="Qmp6MCHt8Z-_02crx0AP-83" value="1" style="edgeLabel;resizable=0;html=1;align=left;verticalAlign=top;strokeColor=default;" vertex="1" connectable="0" parent="Qmp6MCHt8Z-_02crx0AP-82">
          <mxGeometry x="981" y="108" as="geometry" />
        </mxCell>
        <mxCell id="Qmp6MCHt8Z-_02crx0AP-84" value="1" style="edgeLabel;resizable=0;html=1;align=left;verticalAlign=top;strokeColor=default;" vertex="1" connectable="0" parent="Qmp6MCHt8Z-_02crx0AP-82">
          <mxGeometry x="981" y="265" as="geometry" />
        </mxCell>
        <mxCell id="Qmp6MCHt8Z-_02crx0AP-85" value="mode" style="edgeLabel;resizable=0;html=1;align=left;verticalAlign=top;strokeColor=default;" vertex="1" connectable="0" parent="Qmp6MCHt8Z-_02crx0AP-82">
          <mxGeometry x="992" y="108" as="geometry" />
        </mxCell>
        <mxCell id="Qmp6MCHt8Z-_02crx0AP-86" value="" style="html=1;rounded=1;edgeStyle=orthogonalEdgeStyle;dashed=0;startArrow=diamondThinstartSize=12;endArrow=openThin;endSize=12;strokeColor=#595959;exitX=0.103;exitY=0.000;exitDx=0;exitDy=0;entryX=0.500;entryY=1.000;entryDx=0;entryDy=0;" edge="1" parent="1" source="Qmp6MCHt8Z-_02crx0AP-20" target="Qmp6MCHt8Z-_02crx0AP-25">
          <mxGeometry width="50" height="50" relative="1" as="geometry">
            <Array as="points" />
          </mxGeometry>
        </mxCell>
        <mxCell id="Qmp6MCHt8Z-_02crx0AP-87" value="1" style="edgeLabel;resizable=0;html=1;align=left;verticalAlign=top;strokeColor=default;" vertex="1" connectable="0" parent="Qmp6MCHt8Z-_02crx0AP-86">
          <mxGeometry x="71" y="1675" as="geometry" />
        </mxCell>
        <mxCell id="Qmp6MCHt8Z-_02crx0AP-88" value="1" style="edgeLabel;resizable=0;html=1;align=left;verticalAlign=top;strokeColor=default;" vertex="1" connectable="0" parent="Qmp6MCHt8Z-_02crx0AP-86">
          <mxGeometry x="71" y="1739" as="geometry" />
        </mxCell>
        <mxCell id="Qmp6MCHt8Z-_02crx0AP-89" value="travellogsService" style="edgeLabel;resizable=0;html=1;align=left;verticalAlign=top;strokeColor=default;" vertex="1" connectable="0" parent="Qmp6MCHt8Z-_02crx0AP-86">
          <mxGeometry x="82" y="1675" as="geometry" />
        </mxCell>
        <mxCell id="Qmp6MCHt8Z-_02crx0AP-90" value="" style="html=1;rounded=1;edgeStyle=orthogonalEdgeStyle;dashed=0;startArrow=diamondThinstartSize=12;endArrow=openThin;endSize=12;strokeColor=#595959;exitX=1.000;exitY=0.500;exitDx=0;exitDy=0;entryX=1.000;entryY=0.500;entryDx=0;entryDy=0;" edge="1" parent="1" source="Qmp6MCHt8Z-_02crx0AP-25" target="Qmp6MCHt8Z-_02crx0AP-8">
          <mxGeometry width="50" height="50" relative="1" as="geometry">
            <Array as="points">
              <mxPoint x="2265" y="1738" />
              <mxPoint x="2265" y="1832" />
            </Array>
          </mxGeometry>
        </mxCell>
        <mxCell id="Qmp6MCHt8Z-_02crx0AP-91" value="1" style="edgeLabel;resizable=0;html=1;align=left;verticalAlign=top;strokeColor=default;" vertex="1" connectable="0" parent="Qmp6MCHt8Z-_02crx0AP-90">
          <mxGeometry x="1248" y="1705" as="geometry" />
        </mxCell>
        <mxCell id="Qmp6MCHt8Z-_02crx0AP-92" value="1" style="edgeLabel;resizable=0;html=1;align=left;verticalAlign=top;strokeColor=default;" vertex="1" connectable="0" parent="Qmp6MCHt8Z-_02crx0AP-90">
          <mxGeometry x="1258" y="1709" as="geometry" />
        </mxCell>
        <mxCell id="Qmp6MCHt8Z-_02crx0AP-93" value="observationRepository" style="edgeLabel;resizable=0;html=1;align=left;verticalAlign=top;strokeColor=default;" vertex="1" connectable="0" parent="Qmp6MCHt8Z-_02crx0AP-90">
          <mxGeometry x="1197" y="1636" as="geometry" />
        </mxCell>
        <mxCell id="Qmp6MCHt8Z-_02crx0AP-94" value="" style="html=1;rounded=1;edgeStyle=orthogonalEdgeStyle;dashed=1;startArrow=none;endArrow=openThin;endSize=12;strokeColor=#595959;exitX=0.832;exitY=0.000;exitDx=0;exitDy=0;entryX=0.500;entryY=1.000;entryDx=0;entryDy=0;" edge="1" parent="1" source="Qmp6MCHt8Z-_02crx0AP-25" target="Qmp6MCHt8Z-_02crx0AP-23">
          <mxGeometry width="50" height="50" relative="1" as="geometry">
            <Array as="points" />
          </mxGeometry>
        </mxCell>
        <mxCell id="Qmp6MCHt8Z-_02crx0AP-95" value="«create»" style="edgeLabel;resizable=0;html=1;align=left;verticalAlign=top;strokeColor=default;" vertex="1" connectable="0" parent="Qmp6MCHt8Z-_02crx0AP-94">
          <mxGeometry x="208" y="1484" as="geometry" />
        </mxCell>
        <mxCell id="Qmp6MCHt8Z-_02crx0AP-96" value="" style="html=1;rounded=1;edgeStyle=orthogonalEdgeStyle;dashed=0;startArrow=diamondThinstartSize=12;endArrow=openThin;endSize=12;strokeColor=#595959;exitX=1.000;exitY=0.068;exitDx=0;exitDy=0;entryX=0.000;entryY=0.719;entryDx=0;entryDy=0;" edge="1" parent="1" source="Qmp6MCHt8Z-_02crx0AP-25" target="Qmp6MCHt8Z-_02crx0AP-24">
          <mxGeometry width="50" height="50" relative="1" as="geometry">
            <Array as="points" />
          </mxGeometry>
        </mxCell>
        <mxCell id="Qmp6MCHt8Z-_02crx0AP-97" value="1" style="edgeLabel;resizable=0;html=1;align=left;verticalAlign=top;strokeColor=default;" vertex="1" connectable="0" parent="Qmp6MCHt8Z-_02crx0AP-96">
          <mxGeometry x="374" y="1551" as="geometry" />
        </mxCell>
        <mxCell id="Qmp6MCHt8Z-_02crx0AP-98" value="1" style="edgeLabel;resizable=0;html=1;align=left;verticalAlign=top;strokeColor=default;" vertex="1" connectable="0" parent="Qmp6MCHt8Z-_02crx0AP-96">
          <mxGeometry x="363" y="1557" as="geometry" />
        </mxCell>
        <mxCell id="Qmp6MCHt8Z-_02crx0AP-99" value="travellogRepository" style="edgeLabel;resizable=0;html=1;align=left;verticalAlign=top;strokeColor=default;" vertex="1" connectable="0" parent="Qmp6MCHt8Z-_02crx0AP-96">
          <mxGeometry x="336" y="1611" as="geometry" />
        </mxCell>
      </root>
    </mxGraphModel>
  </diagram>
</mxfile>
